<?xml version="1.0" encoding="UTF-8" standalone="no" ?>
<!DOCTYPE svg PUBLIC "-//W3C//DTD SVG 1.1//EN" "http://www.w3.org/Graphics/SVG/1.1/DTD/svg11.dtd">
<svg xmlns="http://www.w3.org/2000/svg" xmlns:xlink="http://www.w3.org/1999/xlink" version="1.1" width="1080" height="1080" viewBox="0 0 1080 1080" xml:space="preserve">
<desc>Created with Fabric.js 5.2.4</desc>
<defs>
</defs>
<rect x="0" y="0" width="100%" height="100%" fill="transparent"></rect>
<g transform="matrix(1 0 0 1 540 540)" id="b7fc2a73-c6a2-4338-b0dc-f0ef1bb6f45b"  >
<rect style="stroke: none; stroke-width: 1; stroke-dasharray: none; stroke-linecap: butt; stroke-dashoffset: 0; stroke-linejoin: miter; stroke-miterlimit: 4; fill: rgb(255,255,255); fill-rule: nonzero; opacity: 1; visibility: hidden;" vector-effect="non-scaling-stroke"  x="-540" y="-540" rx="0" ry="0" width="1080" height="1080" />
</g>
<g transform="matrix(1 0 0 1 540 540)" id="b86070d8-394c-44ae-bf16-c123d770a0ff"  >
</g>
<g transform="matrix(1 0 0 1 540 540)" id="c8f94162-9ae9-4796-b423-94acf1a486d1"  >
<path style="stroke: rgb(163,163,163); stroke-width: 0; stroke-dasharray: none; stroke-linecap: butt; stroke-dashoffset: 0; stroke-linejoin: miter; stroke-miterlimit: 4; fill: rgb(163,163,163); fill-rule: nonzero; opacity: 1;" vector-effect="non-scaling-stroke"  transform=" translate(-224, -256)" d="M 416 32 L 31.9 32 C 14.3 32 0 46.5 0 64.3 L 0 447.7 C 0 465.5 14.3 480 31.9 480 L 416 480 C 433.6 480 448 465.5 448 447.7 L 448 64.3 C 448 46.5 433.6 32 416 32 z M 135.4 416 L 69 416 L 69 202.2 L 135.5 202.2 L 135.5 416 z M 102.2 173 C 80.9 173 63.7 155.7 63.7 134.5 C 63.7 113.30000000000001 80.9 96 102.2 96 C 123.4 96 140.7 113.3 140.7 134.5 C 140.7 155.8 123.49999999999999 173 102.19999999999999 173 z M 384.3 416 L 317.9 416 L 317.9 312 C 317.9 287.2 317.4 255.3 283.4 255.3 C 248.79999999999998 255.3 243.49999999999997 282.3 243.49999999999997 310.2 L 243.49999999999997 416 L 177.09999999999997 416 L 177.09999999999997 202.2 L 240.79999999999995 202.2 L 240.79999999999995 231.39999999999998 L 241.69999999999996 231.39999999999998 C 250.59999999999997 214.59999999999997 272.29999999999995 196.89999999999998 304.59999999999997 196.89999999999998 C 371.79999999999995 196.89999999999998 384.29999999999995 241.2 384.29999999999995 298.79999999999995 L 384.29999999999995 416 z" stroke-linecap="round" />
</g>
</svg>