<?xml version="1.0" encoding="UTF-8" standalone="no" ?>
<!DOCTYPE svg PUBLIC "-//W3C//DTD SVG 1.1//EN" "http://www.w3.org/Graphics/SVG/1.1/DTD/svg11.dtd">
<svg xmlns="http://www.w3.org/2000/svg" xmlns:xlink="http://www.w3.org/1999/xlink" version="1.1" width="1080" height="1080" viewBox="0 0 1080 1080" xml:space="preserve">
<desc>Created with Fabric.js 5.2.4</desc>
<defs>
</defs>
<g transform="matrix(1 0 0 1 540 540)" id="b7fc2a73-c6a2-4338-b0dc-f0ef1bb6f45b"  >
<rect style="stroke: none; stroke-width: 1; stroke-dasharray: none; stroke-linecap: butt; stroke-dashoffset: 0; stroke-linejoin: miter; stroke-miterlimit: 4; fill: rgb(255,255,255); fill-rule: nonzero; opacity: 1; visibility: hidden;" vector-effect="non-scaling-stroke"  x="-540" y="-540" rx="0" ry="0" width="1080" height="1080" />
</g>
<g transform="matrix(1 0 0 1 540 540)" id="b86070d8-394c-44ae-bf16-c123d770a0ff"  >
</g>
<g transform="matrix(1 0 0 1 540 540)" id="c7d46e41-96cc-45cb-9f51-60b2c59b73c1"  >
<path style="stroke: rgb(163,163,163); stroke-width: 0; stroke-dasharray: none; stroke-linecap: butt; stroke-dashoffset: 0; stroke-linejoin: miter; stroke-miterlimit: 4; fill: rgb(163,163,163); fill-rule: nonzero; opacity: 1;" vector-effect="non-scaling-stroke"  transform=" translate(-256, -256)" d="M 459.37 151.716 C 459.695 156.264 459.695 160.81300000000002 459.695 165.36100000000002 C 459.695 304.081 354.11199999999997 463.919 161.137 463.919 C 101.685 463.919 46.456999999999994 446.7 0 416.813 C 8.447 417.787 16.568 418.11199999999997 25.34 418.11199999999997 C 74.395 418.11199999999997 119.553 401.544 155.614 373.28 C 109.482 372.30499999999995 70.822 342.092 57.50200000000001 300.508 C 64.00000000000001 301.48199999999997 70.49700000000001 302.132 77.32000000000001 302.132 C 86.74100000000001 302.132 96.16300000000001 300.832 104.93400000000001 298.559 C 56.85300000000001 288.812 20.79100000000001 246.57900000000004 20.79100000000001 195.574 L 20.79100000000001 194.275 C 34.76000000000001 202.072 51.00500000000001 206.945 68.22200000000001 207.594 C 39.95800000000001 188.751 21.44100000000001 156.589 21.44100000000001 120.20299999999999 C 21.44100000000001 100.71099999999998 26.63800000000001 82.84299999999999 35.735000000000014 67.249 C 87.39000000000001 130.92399999999998 165.03500000000003 172.507 252.10000000000002 177.05599999999998 C 250.47600000000003 169.259 249.50100000000003 161.13799999999998 249.50100000000003 153.016 C 249.50100000000003 95.18799999999999 296.283 48.081999999999994 354.43500000000006 48.081999999999994 C 384.6480000000001 48.081999999999994 411.93700000000007 60.751999999999995 431.1050000000001 81.219 C 454.82000000000005 76.67099999999999 477.5610000000001 67.899 497.70400000000006 55.87899999999999 C 489.90600000000006 80.24499999999999 473.3380000000001 100.71199999999999 451.57200000000006 113.70599999999999 C 472.6890000000001 111.43299999999999 493.15600000000006 105.58399999999999 511.99800000000005 97.463 C 497.7060000000001 118.25399999999999 479.83700000000005 136.771 459.37000000000006 151.716 z" stroke-linecap="round" />
</g>
</svg>